<?xml version="1.0" encoding="UTF-8" standalone="no"?><svg xmlns:svg="http://www.w3.org/2000/svg" xmlns="http://www.w3.org/2000/svg" version="1.1" style="overflow:visible" viewBox="-143 -168 287 283" height="1132px" width="1148px"><rect fill-opacity="0" fill="rgb(0,0,0)" height="283" width="287" y="-168" x="-143" /><svg version="1.1" y="-250" x="-250" viewBox="-250 -250 500 500" height="500px" width="500px" style="overflow:visible"><g transform="rotate(0,0,0)" stroke-linejoin="round" fill="#fff"><path stroke-linecap="butt" stroke-linejoin="round" stroke="none" fill="rgb(255,255,255)" d="m-139.371 143.786999s0.18655 13.0758 27.1259 13.0758c26.9393 0 118.507-39.5274 153.007-32.0958c34.5006 7.43166-121.315-42.2381-180.133-43.9144z" /><path stroke-linecap="butt" stroke-linejoin="round" stroke-width="10" stroke-opacity="1" stroke="rgb(68,68,68)" fill="none" d="m-139.371 143.786999s0.18655 13.0758 27.1259 13.0758c26.9393 0 118.507-39.5274 153.007-32.0958c-52.7541-25.9926-143.173-46.6949-180.133 19.0199z" /><path stroke-linecap="butt" stroke-linejoin="round" stroke="none" fill="rgb(128,173,254)" d="m0-162.0014c-77.2114 0-139.371 62.079-139.371 139.191v166.596c82.0996-69.7795 131.804 42.078 242.665 13.5252c53.4613-87.9596 29.5375-267.464-61.4853-312.979l0.003-0.0058c-13.1897-4.11076-27.2328-6.32735-41.813-6.32735z" /><path stroke-linecap="butt" stroke-linejoin="round" stroke="none" fill="rgb(128,173,254)" d="m41.810999-155.6679c37.1174 24.9534 61.4531 67.3019 61.4531 115.55v197.434c11.3604-2.92344 23.3609-7.31754 36.1064-13.5365v-166.596c0-62.5507-40.9028-115.207-97.561-132.863z" /><path stroke-linecap="butt" stroke-linejoin="round" stroke-width="10" stroke-opacity="1" stroke="rgb(68,68,68)" fill="none" d="m0-162c-77.2114 0-139.371 62.079-139.371 139.191v166.596c90.5058-76.9241 141.641 66.8966 278.742 0v-166.596c0-77.1102-62.1608-139.191-139.371-139.191z" /></g></svg><svg version="1.1" y="-290" x="-200" viewBox="-250 -250 500 500" height="500px" width="500px" style="overflow:visible"><g transform="rotate(0,0,0)" stroke-linejoin="round" fill="#fff"><path stroke-linecap="butt" stroke-linejoin="miter" stroke-width="0" stroke-opacity="0" stroke="rgb(0,0,0)" fill="rgb(255,255,255)" d="m12.8 0a12.8 12.8 0 0 1-12.8 12.8a12.8 12.8 0 0 1-12.8-12.8a12.8 12.8 0 0 1 12.8-12.8a12.8 12.8 0 0 1 12.8 12.8z" /></g></svg><svg version="1.1" y="-250" x="-250" viewBox="-250 -250 500 500" height="500px" width="500px" style="overflow:visible"><g transform="rotate(180,0,0)" stroke-linejoin="round" fill="#fff"><path stroke-linecap="round" stroke-linejoin="round" stroke-width="10" stroke-opacity="1" stroke="rgb(255,255,255)" fill="none" d="m23.988839 5.840879c-6.240937-7.345392-14.66832-11.538984-23.49336-11.69064c-9.168336-0.157616-18.00048 4.059516-24.4842 11.690639" /></g></svg><svg version="1.1" y="-290" x="-300" viewBox="-250 -250 500 500" height="500px" width="500px" style="overflow:visible"><g transform="rotate(0,0,0)" stroke-linejoin="round" fill="#fff"><path stroke-linecap="butt" stroke-linejoin="miter" stroke-width="0" stroke-opacity="0" stroke="rgb(0,0,0)" fill="rgb(255,255,255)" d="m12.8 0a12.8 12.8 0 0 1-12.8 12.8a12.8 12.8 0 0 1-12.8-12.8a12.8 12.8 0 0 1 12.8-12.8a12.8 12.8 0 0 1 12.8 12.8z" /></g></svg></svg>